<svg width="400" height="400" viewBox="0 0 400 400" xmlns="http://www.w3.org/2000/svg">
  <defs>
    <radialGradient id="skyGradient" cx="50%" cy="30%" r="70%">
      <stop offset="0%" style="stop-color:#87CEEB;stop-opacity:1" />
      <stop offset="100%" style="stop-color:#4682B4;stop-opacity:1" />
    </radialGradient>
    <linearGradient id="catGradient" x1="0%" y1="0%" x2="100%" y2="100%">
      <stop offset="0%" style="stop-color:#FF8C42;stop-opacity:1" />
      <stop offset="100%" style="stop-color:#FF6B1A;stop-opacity:1" />
    </linearGradient>
    <filter id="shadow" x="-50%" y="-50%" width="200%" height="200%">
      <feDropShadow dx="3" dy="3" stdDeviation="3" flood-color="#000000" flood-opacity="0.3"/>
    </filter>
  </defs>
  
  <!-- Background -->
  <rect width="400" height="400" fill="url(#skyGradient)"/>
  
  <!-- Clouds -->
  <ellipse cx="80" cy="60" rx="25" ry="15" fill="white" opacity="0.8"/>
  <ellipse cx="95" cy="55" rx="20" ry="12" fill="white" opacity="0.8"/>
  <ellipse cx="110" cy="60" rx="22" ry="14" fill="white" opacity="0.8"/>
  
  <ellipse cx="300" cy="80" rx="30" ry="18" fill="white" opacity="0.7"/>
  <ellipse cx="320" cy="75" rx="25" ry="15" fill="white" opacity="0.7"/>
  <ellipse cx="340" cy="80" rx="20" ry="12" fill="white" opacity="0.7"/>
  
  <!-- Broken chains on ground -->
  <g transform="translate(50,320)" opacity="0.6">
    <rect x="0" y="0" width="8" height="20" rx="4" fill="#666" transform="rotate(15)"/>
    <rect x="15" y="5" width="8" height="20" rx="4" fill="#666" transform="rotate(-20)"/>
    <rect x="30" y="-2" width="8" height="20" rx="4" fill="#666" transform="rotate(45)"/>
  </g>
  
  <g transform="translate(320,340)" opacity="0.6">
    <rect x="0" y="0" width="8" height="20" rx="4" fill="#666" transform="rotate(-30)"/>
    <rect x="15" y="3" width="8" height="20" rx="4" fill="#666" transform="rotate(60)"/>
  </g>
  
  <!-- Cat body -->
  <ellipse cx="200" cy="220" rx="45" ry="35" fill="url(#catGradient)" filter="url(#shadow)"/>
  
  <!-- Cat head -->
  <ellipse cx="200" cy="160" rx="40" ry="35" fill="url(#catGradient)" filter="url(#shadow)"/>
  
  <!-- Cat ears -->
  <polygon points="170,135 180,115 190,135" fill="url(#catGradient)" filter="url(#shadow)"/>
  <polygon points="210,135 220,115 230,135" fill="url(#catGradient)" filter="url(#shadow)"/>
  <polygon points="172,132 178,120 186,132" fill="#FFB366"/>
  <polygon points="214,132 222,120 228,132" fill="#FFB366"/>
  
  <!-- Cat stripes -->
  <ellipse cx="190" cy="150" rx="3" ry="15" fill="#E55100" transform="rotate(-20 190 150)"/>
  <ellipse cx="210" cy="150" rx="3" ry="15" fill="#E55100" transform="rotate(20 210 150)"/>
  <ellipse cx="185" cy="210" rx="4" ry="18" fill="#E55100" transform="rotate(-15 185 210)"/>
  <ellipse cx="215" cy="210" rx="4" ry="18" fill="#E55100" transform="rotate(15 215 210)"/>
  
  <!-- Cat eyes -->
  <ellipse cx="185" cy="155" rx="8" ry="10" fill="#32CD32"/>
  <ellipse cx="215" cy="155" rx="8" ry="10" fill="#32CD32"/>
  <ellipse cx="185" cy="155" rx="3" ry="8" fill="#000"/>
  <ellipse cx="215" cy="155" rx="3" ry="8" fill="#000"/>
  
  <!-- Cat nose and mouth -->
  <polygon points="200,165 195,170 205,170" fill="#FF1493"/>
  <path d="M 200,172 Q 195,175 190,172" stroke="#000" stroke-width="2" fill="none"/>
  <path d="M 200,172 Q 205,175 210,172" stroke="#000" stroke-width="2" fill="none"/>
  
  <!-- Cat whiskers -->
  <line x1="150" y1="160" x2="175" y2="162" stroke="#000" stroke-width="1"/>
  <line x1="150" y1="170" x2="175" y2="170" stroke="#000" stroke-width="1"/>
  <line x1="225" y1="162" x2="250" y2="160" stroke="#000" stroke-width="1"/>
  <line x1="225" y1="170" x2="250" y2="170" stroke="#000" stroke-width="1"/>
  
  <!-- Cat legs -->
  <ellipse cx="175" cy="250" rx="8" ry="20" fill="url(#catGradient)"/>
  <ellipse cx="195" cy="255" rx="8" ry="20" fill="url(#catGradient)"/>
  <ellipse cx="205" cy="255" rx="8" ry="20" fill="url(#catGradient)"/>
  <ellipse cx="225" cy="250" rx="8" ry="20" fill="url(#catGradient)"/>
  
  <!-- Cat tail (curved and raised) -->
  <path d="M 240,200 Q 270,160 280,120 Q 290,100 285,80" stroke="url(#catGradient)" stroke-width="16" fill="none" stroke-linecap="round" filter="url(#shadow)"/>
  <ellipse cx="278" cy="95" rx="3" ry="12" fill="#E55100" transform="rotate(70 278 95)"/>
  
  <!-- Birds in sky (symbols of freedom) -->
  <g transform="translate(120,40)">
    <path d="M 0,0 Q 5,-3 10,0 Q 5,3 0,0" fill="#000" opacity="0.7"/>
  </g>
  <g transform="translate(140,30)">
    <path d="M 0,0 Q 5,-3 10,0 Q 5,3 0,0" fill="#000" opacity="0.7"/>
  </g>
  <g transform="translate(160,45)">
    <path d="M 0,0 Q 5,-3 10,0 Q 5,3 0,0" fill="#000" opacity="0.7"/>
  </g>
  
  <!-- Freedom text -->
  <text x="200" y="320" text-anchor="middle" font-family="Arial, sans-serif" font-size="24" font-weight="bold" fill="#2E4057">FREEDOM</text>
  <text x="200" y="345" text-anchor="middle" font-family="Arial, sans-serif" font-size="16" fill="#2E4057">No Vendor Lock-in</text>
  
  <!-- Subtle lock symbols crossed out -->
  <g transform="translate(80,280)" opacity="0.4">
    <rect x="0" y="5" width="15" height="10" rx="2" fill="#666" stroke="#444"/>
    <path d="M 3,5 Q 3,2 7.5,2 Q 12,2 12,5" stroke="#444" stroke-width="1.5" fill="none"/>
    <line x1="-2" y1="2" x2="17" y2="18" stroke="#FF0000" stroke-width="3"/>
  </g>
  
  <g transform="translate(300,280)" opacity="0.4">
    <rect x="0" y="5" width="15" height="10" rx="2" fill="#666" stroke="#444"/>
    <path d="M 3,5 Q 3,2 7.5,2 Q 12,2 12,5" stroke="#444" stroke-width="1.5" fill="none"/>
    <line x1="-2" y1="2" x2="17" y2="18" stroke="#FF0000" stroke-width="3"/>
  </g>
</svg>